<mxfile host="app.diagrams.net" modified="2023-03-09T11:17:47.173Z" agent="5.0 (X11; Ubuntu)" etag="Og47fvHoDsgIjQeE0pZk" version="20.8.23" type="github">
  <diagram name="PÃ¡gina-1" id="P6ecBl5gnrjqD-7WxXa5">
    <mxGraphModel dx="806" dy="439" grid="1" gridSize="10" guides="1" tooltips="1" connect="1" arrows="1" fold="1" page="1" pageScale="1" pageWidth="827" pageHeight="1169" math="0" shadow="0">
      <root>
        <mxCell id="0" />
        <mxCell id="1" parent="0" />
        <mxCell id="hSI3d2UWb_6bu5Vk_A2x-1" value="&lt;b&gt;&lt;font style=&quot;font-size: 14px;&quot;&gt;reto-labs.es&lt;/font&gt;&lt;/b&gt;" style="rounded=1;whiteSpace=wrap;html=1;" vertex="1" parent="1">
          <mxGeometry x="320" y="40" width="120" height="60" as="geometry" />
        </mxCell>
        <mxCell id="hSI3d2UWb_6bu5Vk_A2x-2" value="sierpinsky" style="shape=note;whiteSpace=wrap;html=1;backgroundOutline=1;darkOpacity=0.05;" vertex="1" parent="1">
          <mxGeometry x="160" y="90" width="80" height="100" as="geometry" />
        </mxCell>
        <mxCell id="hSI3d2UWb_6bu5Vk_A2x-3" value="&lt;div&gt;&lt;br&gt;&lt;/div&gt;&lt;div&gt;&lt;br&gt;&lt;/div&gt;&lt;div&gt;WEB&lt;/div&gt;&lt;div&gt;Reto&lt;/div&gt;" style="shape=note;whiteSpace=wrap;html=1;backgroundOutline=1;darkOpacity=0.05;" vertex="1" parent="1">
          <mxGeometry x="230" y="210" width="50" height="70" as="geometry" />
        </mxCell>
        <mxCell id="hSI3d2UWb_6bu5Vk_A2x-4" value="&lt;br&gt;&lt;div&gt;&lt;br&gt;&lt;/div&gt;&lt;div&gt;login&lt;/div&gt;" style="shape=note;whiteSpace=wrap;html=1;backgroundOutline=1;darkOpacity=0.05;" vertex="1" parent="1">
          <mxGeometry x="80" y="210" width="50" height="60" as="geometry" />
        </mxCell>
        <mxCell id="hSI3d2UWb_6bu5Vk_A2x-5" value="" style="endArrow=classic;html=1;rounded=0;exitX=0.2;exitY=1.017;exitDx=0;exitDy=0;entryX=0;entryY=0;entryDx=80;entryDy=65;entryPerimeter=0;edgeStyle=orthogonalEdgeStyle;exitPerimeter=0;" edge="1" parent="1" source="hSI3d2UWb_6bu5Vk_A2x-1" target="hSI3d2UWb_6bu5Vk_A2x-2">
          <mxGeometry width="50" height="50" relative="1" as="geometry">
            <mxPoint x="390" y="260" as="sourcePoint" />
            <mxPoint x="440" y="210" as="targetPoint" />
          </mxGeometry>
        </mxCell>
        <mxCell id="hSI3d2UWb_6bu5Vk_A2x-6" value="" style="endArrow=classic;html=1;rounded=0;exitX=0.3;exitY=1.01;exitDx=0;exitDy=0;exitPerimeter=0;entryX=1.013;entryY=0.57;entryDx=0;entryDy=0;entryPerimeter=0;edgeStyle=orthogonalEdgeStyle;" edge="1" parent="1" source="hSI3d2UWb_6bu5Vk_A2x-2" target="hSI3d2UWb_6bu5Vk_A2x-4">
          <mxGeometry width="50" height="50" relative="1" as="geometry">
            <mxPoint x="390" y="260" as="sourcePoint" />
            <mxPoint x="440" y="210" as="targetPoint" />
          </mxGeometry>
        </mxCell>
        <mxCell id="hSI3d2UWb_6bu5Vk_A2x-7" value="&lt;b&gt;&lt;font style=&quot;font-size: 14px;&quot;&gt;/Coach&lt;/font&gt;&lt;/b&gt;" style="rounded=1;whiteSpace=wrap;html=1;" vertex="1" parent="1">
          <mxGeometry x="440" y="120" width="120" height="60" as="geometry" />
        </mxCell>
        <mxCell id="hSI3d2UWb_6bu5Vk_A2x-8" value="" style="endArrow=classic;html=1;rounded=0;exitX=0.75;exitY=1;exitDx=0;exitDy=0;entryX=0;entryY=0.5;entryDx=0;entryDy=0;edgeStyle=orthogonalEdgeStyle;" edge="1" parent="1" source="hSI3d2UWb_6bu5Vk_A2x-1" target="hSI3d2UWb_6bu5Vk_A2x-7">
          <mxGeometry width="50" height="50" relative="1" as="geometry">
            <mxPoint x="390" y="260" as="sourcePoint" />
            <mxPoint x="440" y="210" as="targetPoint" />
          </mxGeometry>
        </mxCell>
        <mxCell id="hSI3d2UWb_6bu5Vk_A2x-9" value="&lt;div&gt;&lt;br&gt;&lt;/div&gt;&lt;div&gt;index&lt;/div&gt;" style="shape=note;whiteSpace=wrap;html=1;backgroundOutline=1;darkOpacity=0.05;" vertex="1" parent="1">
          <mxGeometry x="480" y="200" width="40" height="60" as="geometry" />
        </mxCell>
        <mxCell id="hSI3d2UWb_6bu5Vk_A2x-10" value="&lt;br&gt;&lt;div&gt;&lt;br&gt;&lt;/div&gt;&lt;div&gt;login&lt;/div&gt;" style="shape=note;whiteSpace=wrap;html=1;backgroundOutline=1;darkOpacity=0.05;" vertex="1" parent="1">
          <mxGeometry x="390" y="260" width="50" height="60" as="geometry" />
        </mxCell>
        <mxCell id="hSI3d2UWb_6bu5Vk_A2x-11" value="&lt;div&gt;&lt;br&gt;&lt;/div&gt;&lt;div&gt;&lt;br&gt;&lt;/div&gt;&lt;div&gt;WEB&lt;/div&gt;&lt;div&gt;Coach&lt;br&gt;&lt;/div&gt;" style="shape=note;whiteSpace=wrap;html=1;backgroundOutline=1;darkOpacity=0.05;" vertex="1" parent="1">
          <mxGeometry x="580" y="250" width="50" height="70" as="geometry" />
        </mxCell>
        <mxCell id="hSI3d2UWb_6bu5Vk_A2x-12" value="" style="endArrow=classic;html=1;rounded=0;entryX=0;entryY=0.5;entryDx=0;entryDy=0;entryPerimeter=0;exitX=0.7;exitY=1.02;exitDx=0;exitDy=0;exitPerimeter=0;edgeStyle=orthogonalEdgeStyle;" edge="1" parent="1" source="hSI3d2UWb_6bu5Vk_A2x-2" target="hSI3d2UWb_6bu5Vk_A2x-3">
          <mxGeometry width="50" height="50" relative="1" as="geometry">
            <mxPoint x="390" y="260" as="sourcePoint" />
            <mxPoint x="440" y="210" as="targetPoint" />
          </mxGeometry>
        </mxCell>
        <mxCell id="hSI3d2UWb_6bu5Vk_A2x-13" value="" style="endArrow=classic;html=1;rounded=0;fontSize=14;exitX=0.5;exitY=1;exitDx=0;exitDy=0;" edge="1" parent="1" source="hSI3d2UWb_6bu5Vk_A2x-7" target="hSI3d2UWb_6bu5Vk_A2x-9">
          <mxGeometry width="50" height="50" relative="1" as="geometry">
            <mxPoint x="390" y="260" as="sourcePoint" />
            <mxPoint x="440" y="210" as="targetPoint" />
          </mxGeometry>
        </mxCell>
        <mxCell id="hSI3d2UWb_6bu5Vk_A2x-14" value="" style="endArrow=classic;html=1;rounded=0;fontSize=14;exitX=0.5;exitY=1;exitDx=0;exitDy=0;exitPerimeter=0;entryX=0;entryY=0;entryDx=50;entryDy=45;entryPerimeter=0;edgeStyle=orthogonalEdgeStyle;" edge="1" parent="1" source="hSI3d2UWb_6bu5Vk_A2x-9" target="hSI3d2UWb_6bu5Vk_A2x-10">
          <mxGeometry width="50" height="50" relative="1" as="geometry">
            <mxPoint x="390" y="260" as="sourcePoint" />
            <mxPoint x="440" y="210" as="targetPoint" />
            <Array as="points">
              <mxPoint x="490" y="260" />
              <mxPoint x="490" y="305" />
            </Array>
          </mxGeometry>
        </mxCell>
        <mxCell id="hSI3d2UWb_6bu5Vk_A2x-15" value="" style="endArrow=classic;html=1;rounded=0;fontSize=14;entryX=-0.04;entryY=0.786;entryDx=0;entryDy=0;entryPerimeter=0;exitX=0.8;exitY=1.017;exitDx=0;exitDy=0;exitPerimeter=0;edgeStyle=orthogonalEdgeStyle;" edge="1" parent="1" source="hSI3d2UWb_6bu5Vk_A2x-9" target="hSI3d2UWb_6bu5Vk_A2x-11">
          <mxGeometry width="50" height="50" relative="1" as="geometry">
            <mxPoint x="390" y="260" as="sourcePoint" />
            <mxPoint x="440" y="210" as="targetPoint" />
          </mxGeometry>
        </mxCell>
        <mxCell id="hSI3d2UWb_6bu5Vk_A2x-16" value="&lt;div&gt;&lt;br&gt;&lt;/div&gt;&lt;div&gt;&lt;br&gt;&lt;/div&gt;&lt;div&gt;citas.php&lt;/div&gt;&lt;div&gt;&lt;br&gt;&lt;/div&gt;" style="shape=note;whiteSpace=wrap;html=1;backgroundOutline=1;darkOpacity=0.05;fontSize=14;" vertex="1" parent="1">
          <mxGeometry x="660" y="250" width="80" height="70" as="geometry" />
        </mxCell>
        <mxCell id="hSI3d2UWb_6bu5Vk_A2x-17" value="" style="endArrow=classic;html=1;rounded=0;fontSize=14;exitX=0;exitY=0;exitDx=50;exitDy=50;exitPerimeter=0;entryX=0;entryY=0.7;entryDx=0;entryDy=0;entryPerimeter=0;" edge="1" parent="1" source="hSI3d2UWb_6bu5Vk_A2x-11" target="hSI3d2UWb_6bu5Vk_A2x-16">
          <mxGeometry width="50" height="50" relative="1" as="geometry">
            <mxPoint x="390" y="260" as="sourcePoint" />
            <mxPoint x="440" y="210" as="targetPoint" />
          </mxGeometry>
        </mxCell>
        <mxCell id="hSI3d2UWb_6bu5Vk_A2x-18" value="admin" style="text;html=1;strokeColor=none;fillColor=none;align=center;verticalAlign=middle;whiteSpace=wrap;rounded=0;fontSize=14;" vertex="1" parent="1">
          <mxGeometry x="414" y="340" width="60" height="30" as="geometry" />
        </mxCell>
        <mxCell id="hSI3d2UWb_6bu5Vk_A2x-19" value="recursos" style="text;html=1;strokeColor=none;fillColor=none;align=center;verticalAlign=middle;whiteSpace=wrap;rounded=0;fontSize=14;" vertex="1" parent="1">
          <mxGeometry x="420" y="380" width="60" height="30" as="geometry" />
        </mxCell>
        <mxCell id="hSI3d2UWb_6bu5Vk_A2x-20" value="" style="endArrow=none;html=1;rounded=0;fontSize=14;entryX=0.2;entryY=1.033;entryDx=0;entryDy=0;entryPerimeter=0;" edge="1" parent="1" target="hSI3d2UWb_6bu5Vk_A2x-10">
          <mxGeometry width="50" height="50" relative="1" as="geometry">
            <mxPoint x="400" y="400" as="sourcePoint" />
            <mxPoint x="440" y="240" as="targetPoint" />
          </mxGeometry>
        </mxCell>
        <mxCell id="hSI3d2UWb_6bu5Vk_A2x-21" value="" style="endArrow=classic;html=1;rounded=0;fontSize=14;entryX=0;entryY=0.5;entryDx=0;entryDy=0;" edge="1" parent="1" target="hSI3d2UWb_6bu5Vk_A2x-19">
          <mxGeometry width="50" height="50" relative="1" as="geometry">
            <mxPoint x="400" y="400" as="sourcePoint" />
            <mxPoint x="440" y="240" as="targetPoint" />
          </mxGeometry>
        </mxCell>
        <mxCell id="hSI3d2UWb_6bu5Vk_A2x-22" value="" style="endArrow=classic;html=1;rounded=0;fontSize=14;entryX=0;entryY=0.5;entryDx=0;entryDy=0;" edge="1" parent="1" target="hSI3d2UWb_6bu5Vk_A2x-18">
          <mxGeometry width="50" height="50" relative="1" as="geometry">
            <mxPoint x="400" y="355" as="sourcePoint" />
            <mxPoint x="440" y="240" as="targetPoint" />
          </mxGeometry>
        </mxCell>
        <mxCell id="hSI3d2UWb_6bu5Vk_A2x-23" value="&lt;div&gt;admin&lt;/div&gt;" style="text;html=1;strokeColor=none;fillColor=none;align=center;verticalAlign=middle;whiteSpace=wrap;rounded=0;fontSize=14;" vertex="1" parent="1">
          <mxGeometry x="130" y="300" width="60" height="30" as="geometry" />
        </mxCell>
        <mxCell id="hSI3d2UWb_6bu5Vk_A2x-24" value="notas" style="text;html=1;strokeColor=none;fillColor=none;align=center;verticalAlign=middle;whiteSpace=wrap;rounded=0;fontSize=14;" vertex="1" parent="1">
          <mxGeometry x="130" y="320" width="60" height="30" as="geometry" />
        </mxCell>
        <mxCell id="hSI3d2UWb_6bu5Vk_A2x-25" value="" style="endArrow=none;html=1;rounded=0;fontSize=14;entryX=0.2;entryY=0.983;entryDx=0;entryDy=0;entryPerimeter=0;" edge="1" parent="1" target="hSI3d2UWb_6bu5Vk_A2x-4">
          <mxGeometry width="50" height="50" relative="1" as="geometry">
            <mxPoint x="90" y="340" as="sourcePoint" />
            <mxPoint x="440" y="240" as="targetPoint" />
          </mxGeometry>
        </mxCell>
        <mxCell id="hSI3d2UWb_6bu5Vk_A2x-26" value="" style="endArrow=classic;html=1;rounded=0;fontSize=14;entryX=0;entryY=0.5;entryDx=0;entryDy=0;" edge="1" parent="1" target="hSI3d2UWb_6bu5Vk_A2x-23">
          <mxGeometry width="50" height="50" relative="1" as="geometry">
            <mxPoint x="90" y="315" as="sourcePoint" />
            <mxPoint x="440" y="240" as="targetPoint" />
          </mxGeometry>
        </mxCell>
        <mxCell id="hSI3d2UWb_6bu5Vk_A2x-27" value="" style="endArrow=classic;html=1;rounded=0;fontSize=14;entryX=0;entryY=0.5;entryDx=0;entryDy=0;" edge="1" parent="1" target="hSI3d2UWb_6bu5Vk_A2x-24">
          <mxGeometry width="50" height="50" relative="1" as="geometry">
            <mxPoint x="90" y="335" as="sourcePoint" />
            <mxPoint x="440" y="240" as="targetPoint" />
          </mxGeometry>
        </mxCell>
      </root>
    </mxGraphModel>
  </diagram>
</mxfile>
